<?xml version="1.0" encoding="utf-8"?>
<!-- Generator: Adobe Illustrator 16.0.4, SVG Export Plug-In . SVG Version: 6.00 Build 0)  -->
<!DOCTYPE svg PUBLIC "-//W3C//DTD SVG 1.1//EN" "http://www.w3.org/Graphics/SVG/1.1/DTD/svg11.dtd">
<svg version="1.1" id="Layer_1" xmlns="http://www.w3.org/2000/svg" xmlns:xlink="http://www.w3.org/1999/xlink" x="0px" y="0px"
	 width="100px" height="100px" viewBox="0 0 100 100" enable-background="new 0 0 100 100" xml:space="preserve">
<path d="M47.77,55.167c-8.344,0-18.945-4.505-23.63-10.042c-2.653-3.135-3.734-10.288-1.113-15.939
	c2.199-4.742,6.564-7.353,12.291-7.353c6.837,0.006,10.935,4.506,13.318,7.514c3.8-5.192,9.114-7.551,15.857-7.007
	c5.506,0.442,9.431,3.539,11.052,8.72c1.757,5.612,0.382,12.928-2.943,15.654c-7.521,6.168-18.93,8.435-24.762,8.454
	C47.837,55.167,47.772,55.167,47.77,55.167z M35.331,25.833c-4.211,0-7.126,1.694-8.676,5.036
	c-1.987,4.286-0.992,9.863,0.539,11.672c3.888,4.595,13.503,8.626,20.576,8.626v2l0.057-2c5.06-0.017,15.572-2.079,22.238-7.546
	c1.635-1.34,3.085-6.825,1.663-11.367c-1.133-3.622-3.675-5.616-7.555-5.927c-6.194-0.497-10.5,1.841-13.611,7.425
	c-0.314,0.564-0.881,0.942-1.522,1.014c-0.643,0.075-1.279-0.169-1.71-0.649c-0.371-0.411-0.754-0.907-1.199-1.481
	C44.034,29.929,40.866,25.838,35.331,25.833z"/>
<path d="M59.846,44.581L59.846,44.581c-0.383,0-0.778-0.022-1.193-0.064c-2.837-0.285-5.168-2.437-5.668-5.233
	c-0.068-0.38-0.102-0.774-0.101-1.169c0.013-2.155,1.066-4.299,2.817-5.739c2.694-2.216,6.295-2.539,8.769-0.714
	c2.02,1.491,3.13,4.201,2.763,6.743c-0.288,1.992-1.466,3.835-3.149,4.933C62.778,44.185,61.432,44.581,59.846,44.581z
	 M60.751,34.441c-0.804,0-1.719,0.373-2.509,1.023c-0.832,0.684-1.353,1.707-1.358,2.668c-0.001,0.15,0.013,0.302,0.038,0.446
	c0.187,1.046,1.063,1.851,2.131,1.958c1.153,0.115,1.992,0.005,2.848-0.553c0.723-0.471,1.249-1.296,1.373-2.153
	c0.16-1.107-0.325-2.321-1.18-2.952C61.694,34.584,61.256,34.441,60.751,34.441z"/>
<path d="M37.59,43.914c-1.905,0-3.386-0.467-4.801-1.515c-1.615-1.195-2.68-3.105-2.849-5.111c-0.214-2.561,1.056-5.199,3.161-6.567
	c1.029-0.667,2.17-1.006,3.394-1.006c1.842,0,3.779,0.817,5.316,2.243c1.662,1.542,2.585,3.745,2.47,5.893
	c-0.022,0.397-0.08,0.789-0.171,1.167c-0.665,2.761-3.121,4.77-5.971,4.885C37.953,43.91,37.77,43.914,37.59,43.914z M36.496,33.715
	c-0.444,0-0.841,0.118-1.215,0.361c-0.89,0.578-1.447,1.762-1.354,2.877c0.073,0.863,0.549,1.718,1.242,2.231
	c0.807,0.597,1.589,0.771,2.809,0.722c1.073-0.043,1.996-0.794,2.244-1.826c0.035-0.146,0.057-0.296,0.066-0.449
	c0.051-0.956-0.407-2.007-1.197-2.74C38.297,34.155,37.327,33.715,36.496,33.715z"/>
<path d="M47.74,48.12c-0.414,0-0.823-0.128-1.168-0.376c-0.991-0.713-1.927-1.812-2.636-3.093c-0.534-0.967-0.184-2.184,0.783-2.718
	c0.967-0.535,2.184-0.185,2.718,0.783c0.137,0.248,0.286,0.484,0.443,0.703c0.194-0.224,0.356-0.439,0.422-0.576
	c0.412-1.024,1.574-1.511,2.598-1.099s1.517,1.587,1.104,2.611c-0.49,1.217-2.279,3.179-3.591,3.648
	C48.195,48.082,47.967,48.12,47.74,48.12z"/>
<path d="M22.677,64.947c-0.813,0-1.578-0.5-1.876-1.308l-0.854-2.31c-0.383-1.036,0.146-2.187,1.183-2.569
	c1.035-0.384,2.187,0.146,2.569,1.183l0.854,2.31c0.383,1.036-0.146,2.187-1.183,2.569C23.142,64.907,22.907,64.947,22.677,64.947z"
	/>
<path d="M28.667,64.501c-0.81,0-1.572-0.496-1.873-1.299l-0.5-1.333c-0.388-1.034,0.136-2.187,1.17-2.575
	c1.036-0.386,2.187,0.137,2.575,1.171l0.5,1.333c0.388,1.034-0.136,2.187-1.17,2.575C29.138,64.459,28.9,64.501,28.667,64.501z"/>
<path d="M20.355,57.097c-0.947,0-1.789-0.676-1.965-1.641l-0.256-1.401c-0.199-1.087,0.521-2.129,1.608-2.327
	c1.088-0.19,2.129,0.522,2.327,1.608l0.256,1.401c0.199,1.087-0.521,2.129-1.608,2.327C20.595,57.086,20.474,57.097,20.355,57.097z"
	/>
<path d="M77.182,57.086c-0.162,0-0.327-0.02-0.491-0.061c-1.071-0.271-1.721-1.358-1.45-2.429l0.349-1.381
	c0.271-1.071,1.36-1.718,2.429-1.45c1.071,0.271,1.721,1.358,1.45,2.429l-0.349,1.381C78.89,56.482,78.075,57.086,77.182,57.086z"/>
<path d="M26.334,71.667c-0.734,0-1.44-0.405-1.791-1.106l-0.833-1.667c-0.494-0.987-0.093-2.188,0.895-2.683
	c0.987-0.495,2.189-0.093,2.683,0.896l0.833,1.667c0.494,0.987,0.093,2.188-0.895,2.683C26.94,71.6,26.635,71.667,26.334,71.667z"/>
<path d="M30.084,78.167c-0.734,0-1.44-0.405-1.791-1.106l-0.666-1.334c-0.493-0.988-0.092-2.189,0.896-2.683
	c0.988-0.496,2.189-0.093,2.683,0.896l0.666,1.334c0.493,0.988,0.092,2.189-0.896,2.683C30.689,78.1,30.385,78.167,30.084,78.167z"
	/>
<path d="M35.418,84.25c-0.6,0-1.192-0.269-1.586-0.779l-0.834-1.083c-0.674-0.876-0.511-2.132,0.364-2.806
	c0.875-0.672,2.131-0.509,2.805,0.364l0.834,1.083c0.674,0.876,0.511,2.132-0.364,2.806C36.274,84.114,35.844,84.25,35.418,84.25z"
	/>
<path d="M32.168,71.333c-0.733,0-1.439-0.404-1.79-1.104l-0.584-1.166c-0.495-0.987-0.095-2.189,0.893-2.684
	c0.987-0.496,2.189-0.096,2.684,0.893l0.584,1.166c0.495,0.987,0.095,2.189-0.893,2.684C32.775,71.266,32.47,71.333,32.168,71.333z"
	/>
<path d="M36.334,77.5c-0.608,0-1.208-0.276-1.602-0.8l-0.75-1c-0.663-0.884-0.483-2.138,0.4-2.8c0.884-0.664,2.137-0.482,2.8,0.399
	l0.75,1c0.663,0.884,0.483,2.138-0.4,2.8C37.173,77.37,36.752,77.5,36.334,77.5z"/>
<path d="M34.918,65.083c-0.733,0-1.438-0.403-1.789-1.104l-0.334-0.666c-0.495-0.987-0.096-2.189,0.891-2.685
	c0.988-0.492,2.189-0.096,2.684,0.892l0.334,0.666c0.495,0.987,0.096,2.189-0.891,2.685C35.526,65.015,35.22,65.083,34.918,65.083z"
	/>
<path d="M37.918,71.251c-0.776,0-1.514-0.454-1.839-1.213l-0.25-0.583c-0.436-1.015,0.035-2.19,1.05-2.626
	c1.014-0.437,2.191,0.034,2.626,1.05l0.25,0.583c0.436,1.015-0.035,2.19-1.05,2.626C38.448,71.198,38.181,71.251,37.918,71.251z"/>
<path d="M78.896,21.853c-6.743-7.864-17.542-12.02-31.229-12.02c-11.351,0-20.691,3.741-27.011,10.818
	c-6.946,7.778-9.82,18.927-8.31,32.241c2.827,24.931,17.975,34.782,22.55,37.207c3.254,1.726,10.225,1.983,14.09,1.983
	c4.708,0,9.06-0.376,11.356-0.982c6.585-1.737,12.639-7.324,17.509-16.157c3.716-6.74,6.628-15.266,7.792-22.806
	C87.562,39.709,85.229,29.237,78.896,21.853z M81.69,51.528c-1.991,12.9-10.247,32.507-22.367,35.705
	c-0.542,0.143-1.275,0.271-2.123,0.384c0-0.001,0-0.001,0-0.001c-5.348-13.928-0.642-22.517,1.631-25.562
	c0.66-0.885,0.478-2.138-0.408-2.799c-0.885-0.661-2.14-0.477-2.799,0.408c-2.606,3.495-7.959,13.147-2.551,28.312
	c-1.304,0.068-2.686,0.108-4.087,0.108c-1.728,0-3.372-0.056-4.875-0.158c5.312-14.954,0.125-24.556-2.407-28.042
	c-0.648-0.893-1.899-1.091-2.793-0.442c-0.894,0.649-1.092,1.899-0.443,2.794c2.204,3.033,6.749,11.553,1.552,25.235
	c-1.453-0.243-2.58-0.549-3.25-0.903C23.764,79.671,17.678,64.418,16.32,52.441c-1.378-12.149,1.153-22.221,7.319-29.126
	c5.54-6.204,13.849-9.482,24.028-9.482c12.483,0,22.232,3.674,28.192,10.624C81.487,31.02,83.449,40.128,81.69,51.528z"/>
<path d="M74.49,64.947c-0.23,0-0.464-0.04-0.692-0.125c-1.036-0.382-1.566-1.532-1.184-2.568l0.853-2.31
	c0.382-1.036,1.533-1.567,2.568-1.184c1.036,0.382,1.566,1.532,1.184,2.568l-0.853,2.31C76.068,64.446,75.304,64.947,74.49,64.947z"
	/>
<path d="M68.5,64.501c-0.233,0-0.471-0.042-0.702-0.128c-1.034-0.389-1.559-1.541-1.171-2.575l0.5-1.333
	c0.389-1.034,1.54-1.555,2.575-1.171c1.034,0.389,1.559,1.541,1.171,2.575l-0.5,1.333C70.071,64.005,69.31,64.501,68.5,64.501z"/>
<path d="M70.831,71.667c-0.3,0-0.605-0.067-0.892-0.211c-0.988-0.494-1.39-1.695-0.896-2.683l0.833-1.667
	c0.494-0.988,1.695-1.391,2.683-0.896c0.988,0.494,1.39,1.695,0.896,2.683l-0.833,1.667C72.271,71.262,71.565,71.667,70.831,71.667z
	"/>
<path d="M67.081,78.167c-0.3,0-0.605-0.067-0.893-0.211c-0.988-0.494-1.389-1.695-0.895-2.684l0.667-1.334
	c0.493-0.987,1.694-1.389,2.684-0.895c0.988,0.494,1.389,1.695,0.895,2.684l-0.667,1.334C68.521,77.763,67.815,78.167,67.081,78.167
	z"/>
<path d="M61.749,84.25c-0.426,0-0.854-0.135-1.219-0.415c-0.875-0.673-1.039-1.929-0.365-2.805l0.833-1.083
	c0.673-0.876,1.927-1.04,2.805-0.365c0.875,0.673,1.039,1.929,0.365,2.805l-0.833,1.083C62.941,83.981,62.349,84.25,61.749,84.25z"
	/>
<path d="M64.998,71.333c-0.3,0-0.605-0.067-0.893-0.211c-0.988-0.494-1.389-1.695-0.895-2.684l0.583-1.166
	c0.494-0.987,1.693-1.39,2.684-0.895c0.988,0.494,1.389,1.695,0.895,2.684l-0.583,1.166C66.438,70.929,65.732,71.333,64.998,71.333z
	"/>
<path d="M60.831,77.5c-0.417,0-0.838-0.13-1.198-0.4c-0.884-0.662-1.062-1.916-0.399-2.8l0.75-1c0.662-0.882,1.914-1.064,2.8-0.399
	c0.884,0.662,1.062,1.916,0.399,2.8l-0.75,1C62.04,77.224,61.439,77.5,60.831,77.5z"/>
<path d="M62.081,65.167c-0.336,0-0.676-0.084-0.988-0.263c-0.96-0.547-1.294-1.769-0.747-2.728l0.333-0.584
	c0.547-0.961,1.767-1.297,2.728-0.747c0.96,0.547,1.294,1.769,0.747,2.728l-0.333,0.584C63.451,64.805,62.776,65.167,62.081,65.167z
	"/>
<path d="M59.165,71.25c-0.299,0-0.604-0.067-0.89-0.21c-0.988-0.492-1.391-1.693-0.898-2.682l0.249-0.5
	c0.491-0.988,1.69-1.392,2.682-0.898c0.988,0.492,1.391,1.693,0.898,2.682l-0.249,0.5C60.607,70.844,59.9,71.25,59.165,71.25z"/>
</svg>
