<?xml version="1.0" encoding="utf-8"?>
<!-- Generator: Adobe Illustrator 16.0.4, SVG Export Plug-In . SVG Version: 6.00 Build 0)  -->
<!DOCTYPE svg PUBLIC "-//W3C//DTD SVG 1.1//EN" "http://www.w3.org/Graphics/SVG/1.1/DTD/svg11.dtd">
<svg version="1.1" id="Layer_1" xmlns="http://www.w3.org/2000/svg" xmlns:xlink="http://www.w3.org/1999/xlink" x="0px" y="0px"
	 width="100px" height="100px" viewBox="0 0 100 100" enable-background="new 0 0 100 100" xml:space="preserve">
<path d="M85.059,36.656c0.355-3.994-2.053-10.635-8.297-13.699c-0.916-2.952-3.984-5.27-5.884-6.465
	c-4.474-2.815-11.01-4.889-16.068-3.551c-3.04-1.789-8.007-2.188-13.605-1.049c-4.824,0.981-10.676,3.366-13.269,7.185
	c-6.025,1.888-9.714,7.729-10.878,13.154c-2.998,1.45-4.933,4.574-4.933,8.164c0,2.873,1.148,6.67,6.425,8.842
	c0.076,0.796,0.158,1.86,0.256,3.129c0.835,10.819,1.992,22.703,5.156,26.777c1.433,1.845,2.866,2.935,4.858,4.191
	c5.607,3.544,13.164,5.235,20.756,5.235c10.424,0,20.916-3.191,26.505-9.16c0.492-0.525,0.953-1.079,1.371-1.645
	c3.221-4.358,4.545-21.251,4.92-27.231c2.961-0.776,4.922-3.998,5.214-7.272C87.842,40.403,86.879,38.055,85.059,36.656z
	 M74.236,75.39c-0.326,0.441-0.688,0.874-1.074,1.287c-0.553,0.591-1.169,1.148-1.834,1.676c0.106-1.259,0.231-2.898,0.388-4.968
	c0.173-2.287,0.354-4.697,0.526-6.627c0.098-1.1-0.715-2.071-1.815-2.169c-1.104-0.095-2.071,0.716-2.169,1.815
	c-0.173,1.944-0.356,4.374-0.53,6.679c-0.223,2.954-0.5,6.63-0.627,7.256c-0.044,0.216-0.041,0.429-0.016,0.637
	c-1.631,0.789-3.412,1.451-5.292,1.986c0.003-0.044,0.006-0.081,0.009-0.126c0.185-2.69,0.57-8.287,0.573-10.802
	c0.001-1.104-0.893-2.002-1.997-2.003c-0.001,0-0.002,0-0.003,0c-1.104,0-1.999,0.894-2,1.997
	c-0.003,2.381-0.382,7.887-0.564,10.532c-0.042,0.612-0.073,1.07-0.09,1.337c-1.688,0.298-3.421,0.497-5.169,0.604
	c-0.242-4.422-0.558-10.673-0.429-13.688c0.048-1.104-0.809-2.037-1.912-2.084c-1.113-0.038-2.037,0.81-2.084,1.912
	c-0.129,2.993,0.124,8.413,0.423,13.939c-1.768-0.041-3.525-0.186-5.245-0.429l-0.241-1.959c-0.401-3.266-0.855-6.968-1.261-9.287
	c-0.191-1.089-1.229-1.819-2.315-1.625c-1.088,0.19-1.816,1.227-1.625,2.314c0.388,2.219,0.836,5.866,1.231,9.085l0.082,0.663
	c-1.73-0.438-3.387-0.991-4.933-1.666c0.001-0.03,0.009-0.06,0.009-0.09c-0.001-1.394-0.872-8.98-1.521-13.626
	c-0.153-1.095-1.166-1.867-2.258-1.704c-1.094,0.152-1.857,1.163-1.704,2.257c0.498,3.56,1.034,8.138,1.304,10.86
	c-1.354-0.917-2.143-1.644-2.952-2.685c-2.394-3.082-3.564-15.144-4.138-22.233c1.325,1.227,2.829,2.286,4.519,3.165
	c4.093,2.129,10.986,3.572,17.437,3.572c3.227,0,6.343-0.361,8.941-1.179c10.001,0.985,18.818-1.383,24.255-6.216
	C77.433,62.563,76.004,72.998,74.236,75.39z M83.603,42.908c-0.133,1.487-0.891,3.029-1.89,3.58
	c-0.146-0.148-0.312-0.283-0.508-0.383c-0.986-0.502-2.189-0.111-2.691,0.872c-3.382,6.62-13.285,10.246-24.637,9.018
	c-0.291-0.031-0.585,0.001-0.862,0.096c-6.615,2.262-18.355,0.746-23.667-2.017c-3.795-1.974-6.369-4.919-7.867-9.005
	c-0.381-1.038-1.532-1.569-2.566-1.189c-0.327,0.12-0.596,0.322-0.81,0.567c-1.721-1.313-1.979-2.868-1.979-4.051
	c0-1.769,0.878-4.095,3.354-4.829c0.939-0.278,1.517-1.186,1.417-2.126c0.83-4.385,3.881-9.5,8.811-10.708
	c0.551-0.135,1.02-0.498,1.287-0.998c1.325-2.473,5.749-4.854,11.007-5.923c4.836-0.983,9.352-0.628,11.232,0.887
	c0.553,0.444,1.296,0.563,1.96,0.313c3.696-1.393,9.615,0.388,13.554,2.866c3.021,1.901,4.191,3.699,4.275,4.662
	c0.065,0.75,0.546,1.4,1.244,1.682c4.91,1.979,6.546,6.541,6.784,9.073c-0.951,0.087-1.712,0.833-1.801,1.809
	c-0.099,1.1,0.713,2.072,1.812,2.171C83.534,39.497,83.715,41.646,83.603,42.908z"/>
<path d="M29,45.51c-1.023,0-1.895-0.781-1.989-1.819l-0.115-1.269c-0.1-1.1,0.711-2.073,1.811-2.173
	c1.103-0.104,2.073,0.711,2.173,1.811l0.115,1.269c0.1,1.1-0.711,2.073-1.811,2.173C29.122,45.507,29.06,45.51,29,45.51z"/>
<path d="M37.996,31.671c-0.3,0-0.605-0.068-0.893-0.211c-0.988-0.494-1.389-1.695-0.895-2.683l0.691-1.384
	c0.493-0.989,1.694-1.39,2.683-0.895c0.988,0.494,1.389,1.695,0.895,2.683l-0.691,1.384C39.436,31.266,38.729,31.671,37.996,31.671z
	"/>
<path d="M55.681,37.703c-0.709,0-1.396-0.377-1.758-1.043l-0.691-1.269c-0.529-0.97-0.171-2.185,0.799-2.713
	c0.97-0.53,2.186-0.17,2.713,0.799l0.691,1.269c0.529,0.97,0.171,2.185-0.799,2.713C56.332,37.624,56.004,37.703,55.681,37.703z"/>
<path d="M65.681,47.703c-0.709,0-1.396-0.377-1.758-1.043l-0.691-1.269c-0.529-0.97-0.171-2.185,0.799-2.713
	c0.969-0.531,2.185-0.171,2.713,0.799l0.691,1.269c0.529,0.97,0.171,2.185-0.799,2.713C66.332,47.624,66.004,47.703,65.681,47.703z"
	/>
<path d="M71.442,39.167c-0.733,0-1.44-0.405-1.79-1.105l-0.577-1.153c-0.495-0.988-0.095-2.189,0.893-2.684
	c0.99-0.495,2.19-0.094,2.684,0.894l0.577,1.153c0.495,0.988,0.095,2.189-0.893,2.684C72.048,39.099,71.743,39.167,71.442,39.167z"
	/>
<path d="M58.294,27.404c-0.24,0-0.973,0-2.688-0.937c-0.969-0.529-1.326-1.743-0.798-2.712c0.528-0.968,1.741-1.327,2.713-0.8
	c0.344,0.187,0.787,0.393,0.987,0.46c1.004,0.107,1.786,0.957,1.786,1.989C60.294,26.509,59.398,27.404,58.294,27.404z"/>
<path d="M43.534,49.892c-0.144,0-0.29-0.016-0.436-0.048c-1.078-0.24-1.758-1.308-1.519-2.386l0.23-1.038
	c0.239-1.078,1.309-1.757,2.386-1.519c1.078,0.24,1.758,1.308,1.519,2.386l-0.23,1.038C45.278,49.257,44.451,49.892,43.534,49.892z"
	/>
</svg>
