<?xml version="1.0" encoding="utf-8"?>
<!-- Generator: Adobe Illustrator 16.0.4, SVG Export Plug-In . SVG Version: 6.00 Build 0)  -->
<!DOCTYPE svg PUBLIC "-//W3C//DTD SVG 1.1//EN" "http://www.w3.org/Graphics/SVG/1.1/DTD/svg11.dtd">
<svg version="1.1" id="Layer_1" xmlns="http://www.w3.org/2000/svg" xmlns:xlink="http://www.w3.org/1999/xlink" x="0px" y="0px"
	 width="100px" height="100px" viewBox="0 0 100 100" enable-background="new 0 0 100 100" xml:space="preserve">
<path d="M92.396,33.675c-1.199-2.089-3.82-3.036-5.809-3.463c-1.029-0.221-2.468-0.256-4.134-0.297
	c-1.871-0.045-5.738-0.14-6.548-0.826c-0.056-0.108-0.121-0.208-0.192-0.301c0.141-0.505,0.251-1.067,0.34-1.691
	c0.097-0.675,0.776-5.837-0.4-8.443c-0.075-0.589-0.379-1.218-1.06-1.74c-4.663-3.578-24.012-3.681-26.202-3.681
	c-5.232,0-17.913,0.296-22.644,3.037c-0.626,0.363-1.003,0.772-1.241,1.172c-0.011,0.015-0.02,0.03-0.029,0.045
	c-0.028,0.048-0.06,0.096-0.083,0.144c-0.156,0.276-0.257,0.589-0.268,0.93c-0.019,0.572-0.045,1.164-0.072,1.764
	c-0.136,2.998-0.263,6.067,0.428,8.575c-4.022,2.935-8.351,4.06-13.504,4.697c-0.55-0.051-1.111,0.09-1.587,0.407
	c-0.768,0.513-1.086,1.484-0.768,2.352c0.239,0.652,0.789,1.117,1.438,1.264c0.309,0.564,0.709,1.538,0.949,2.121
	c0.475,1.155,0.785,1.89,1.173,2.426c1.618,2.24,4.041,2.798,6.551,2.655c-3.237,15.042,2.249,33.455,12.381,40.45
	c2.962,2.046,11.072,3.172,19.299,3.172c8.396,0,16.912-1.174,20.194-3.742c4.303-3.368,7.895-9.609,9.855-17.125
	c2.048-7.852,2.162-16.496,0.355-24.408c0.651-0.456,1.184-0.881,1.584-1.204c0.175-0.141,0.315-0.257,0.424-0.334
	c0.896-0.638,2.173-0.646,3.524-0.656c2.087-0.015,5.24-0.036,6.383-3.516C93.17,36.129,93.053,34.821,92.396,33.675z
	 M27.997,21.729c3.4,0.841,9.989,1.523,22.935,1.523c12.264,0,18.313-0.635,21.361-1.417c0.105,1.818-0.055,4.571-0.391,5.782
	c-10.031,3.531-35.038,3.445-43.441,0.661C27.88,26.684,27.9,24.169,27.997,21.729z M48.391,17.232
	c7.818,0,14.525,0.59,18.857,1.372c-3.623,0.364-9.105,0.649-16.316,0.649c-8.588,0-14.928-0.384-18.845-0.849
	C35.998,17.667,41.792,17.232,48.391,17.232z M68.143,81.55c-5.045,3.948-30.115,3.633-34.756,0.43
	c-9.135-6.308-14.007-24.273-10.358-37.922c0.782-0.21,1.532-0.436,2.218-0.644c0.617-0.187,1.244-0.393,1.877-0.601
	c2.865-0.941,5.83-1.915,8.225-1.089c1.223,0.421,2.516,1.39,3.885,2.415c1.485,1.112,3.021,2.262,4.735,2.902
	c1.174,0.438,2.31,0.619,3.409,0.619c2.863,0,5.477-1.229,7.86-2.351c2.438-1.146,4.758-2.227,7.192-2.144
	c0.987,0.035,2.194,0.645,3.473,1.29c1.562,0.789,3.178,1.605,4.983,1.708c2.436,0.136,4.533-0.332,6.282-1.019
	C80.363,60.819,75.111,76.097,68.143,81.55z M88.933,36.209c-0.194,0.593-0.339,0.749-2.609,0.765
	C84.59,36.986,82.433,37,80.508,38.37c-0.156,0.111-0.362,0.274-0.613,0.477c-1.44,1.159-4.425,3.558-8.78,3.323
	c-0.974-0.056-2.156-0.653-3.409-1.286c-1.607-0.812-3.27-1.651-5.135-1.717c-3.406-0.101-6.403,1.284-9.036,2.522
	c-2.957,1.392-5.513,2.594-8.168,1.603c-1.175-0.438-2.418-1.37-3.735-2.355c-1.556-1.165-3.165-2.37-4.98-2.996
	c-3.668-1.264-7.445-0.023-10.776,1.071c-0.603,0.198-1.2,0.395-1.788,0.573c-3.06,0.926-7.249,2.195-8.66,0.243
	c-0.148-0.22-0.492-1.057-0.72-1.61c-0.149-0.363-0.295-0.717-0.441-1.059c4.665-0.796,8.776-2.199,12.749-5.152
	c4.467,1.516,12.813,2.335,21.506,2.335c9.036,0,18.436-0.886,24.233-2.794c1.688,2.164,5.701,2.269,9.602,2.364
	c1.342,0.033,2.729,0.066,3.392,0.209c1.807,0.388,2.898,1.054,3.179,1.542C88.973,35.747,89.044,35.871,88.933,36.209z"/>
<path d="M32.561,64.355L32.561,64.355c-2.077,0-3.572-0.342-4.443-1.015c-1.906-1.473-2.272-6.271-2.252-7.995
	c0.026-2.309,0.555-3.811,1.617-4.594c0.856-0.63,2.091-0.937,3.773-0.937c2.182,0,4.812,0.53,5.981,0.906
	c0.991,0.319,1.713,1.182,2.146,2.565c0.673,2.151,0.953,7.384-0.42,9.179C37.659,64.171,34.052,64.355,32.561,64.355z
	 M30.632,60.167c0.292,0.078,0.92,0.188,1.929,0.188c1.521,0,2.706-0.242,3.212-0.424c0.295-1.186,0.217-4.355-0.22-5.532
	c-0.989-0.253-2.785-0.584-4.297-0.584c-0.666,0-1.052,0.065-1.252,0.117C29.603,55.21,30.053,58.995,30.632,60.167z"/>
</svg>
