<?xml version="1.0" encoding="utf-8"?>
<!-- Generator: Adobe Illustrator 16.0.4, SVG Export Plug-In . SVG Version: 6.00 Build 0)  -->
<!DOCTYPE svg PUBLIC "-//W3C//DTD SVG 1.1//EN" "http://www.w3.org/Graphics/SVG/1.1/DTD/svg11.dtd">
<svg version="1.1" id="Layer_1" xmlns="http://www.w3.org/2000/svg" xmlns:xlink="http://www.w3.org/1999/xlink" x="0px" y="0px"
	 width="100px" height="100px" viewBox="0 0 100 100" enable-background="new 0 0 100 100" xml:space="preserve">
<path d="M43.199,89.14c-4.886,0-11.528-0.338-14.224-2.027c-0.757-0.474-1.107-1.392-0.859-2.25
	c1.622-5.608,8.864-8.244,15.515-8.956c-1.782-6.002-0.939-11.314,2.434-14.842c3.139-3.282,8.104-4.464,12.358-2.948
	c1.04,0.372,1.582,1.517,1.211,2.557s-1.516,1.582-2.557,1.211c-2.789-0.996-6.055-0.216-8.122,1.944
	c-2.747,2.873-3,7.537-0.714,13.133c0.248,0.606,0.183,1.296-0.174,1.846c-0.356,0.549-0.959,0.89-1.614,0.91
	c-5.411,0.172-11.299,1.799-13.622,4.644c7.197,1.724,29.022,0.387,31.75-2.314c1.311-1.297,5.389-11.019,5.307-20.803
	c-0.052-6.355-1.826-11.25-5.271-14.548c-6.547-6.268-14.155-7.323-19.19-8.021c-3.779-0.524-6.51-0.903-7.31-3.338
	c-1.031-3.141-2.688-5.825-4.922-7.978c-1.193-1.151-5.883-4.574-9.701-5.87c0.607,1.558,1.143,3.144,0.519,4.509
	c-0.315,0.69-0.89,1.212-1.619,1.468c-3.064,1.077-5.746,3.937-7.174,7.651c-1.323,3.44-1.553,7.279-1.536,10.46
	c4.668,2.331,10.614,1.721,14.52-1.601c0.842-0.716,2.104-0.612,2.819,0.229c0.715,0.842,0.613,2.104-0.229,2.819
	c-5.452,4.635-13.921,5.244-20.137,1.445c-0.582-0.355-0.942-0.982-0.957-1.663c-0.081-3.74,0.048-8.611,1.785-13.126
	c1.736-4.514,4.866-7.974,8.677-9.634c-0.145-0.468-0.38-1.065-0.543-1.48c-0.663-1.682-1.289-3.271-0.333-4.574
	c0.508-0.693,1.337-1.051,2.27-0.987c5.465,0.383,12.82,5.936,14.414,7.472c2.661,2.564,4.639,5.73,5.881,9.413
	c0.598,0.333,2.544,0.603,4.125,0.822c5.545,0.769,13.924,1.931,21.406,9.094c4.255,4.074,6.443,9.929,6.505,17.405
	c0.087,10.448-4.215,21.425-6.492,23.68c-3.055,3.022-14.231,3.89-18.896,4.123C47.649,89.055,45.644,89.14,43.199,89.14z"/>
<path d="M77.334,73.333c-0.612,0-1.212-0.281-1.601-0.8c-0.588-0.783-0.522-1.876,0.154-2.583c2.647-2.767,3.947-7.153,3.565-12.035
	c-0.563-7.219-4.598-14.35-10.791-19.075c-8.331-6.356-9.962-12.243-9.863-16.063c0.091-3.538,1.801-6.782,4.572-8.678
	c5.433-3.718,12.256-3.786,19.175-0.169c0.627,0.328,1.034,0.962,1.07,1.669c0.037,0.707-0.303,1.38-0.894,1.771
	c-0.727,0.481-0.792,0.828-0.813,0.942c-0.198,1.058,1.258,3.118,2.428,4.773c1.807,2.556,3.674,5.198,3.053,7.967
	c-0.144,0.639-0.411,1.231-0.8,1.773c2.64,2.828,4.005,8.182,4.384,12.654c0.824,9.729-2.084,22.097-12.718,27.626
	C77.963,73.26,77.646,73.333,77.334,73.333z M72.559,15.251c-2.514,0-4.845,0.723-6.93,2.149c-1.74,1.191-2.772,3.188-2.832,5.48
	c-0.105,4.082,2.84,8.621,8.291,12.779c7.085,5.405,11.702,13.608,12.354,21.944c0.153,1.967,0.075,3.879-0.22,5.688
	c3.326-5.167,4.245-11.818,3.766-17.472c-0.567-6.704-2.855-10.476-4.224-10.915c-0.756-0.243-1.298-0.911-1.378-1.701
	c-0.081-0.791,0.313-1.554,1.006-1.945c0.445-0.251,0.997-0.643,1.095-1.08c0.232-1.036-1.235-3.113-2.416-4.783
	c-1.771-2.506-3.603-5.098-3.093-7.819c0.077-0.407,0.202-0.795,0.376-1.165C76.355,15.641,74.415,15.251,72.559,15.251z"/>
<path d="M24.672,60.474c-0.006-0.009-0.016-0.016-0.022-0.024c0.267-1.88-0.853-4.889-3.229-5.296
	c-1.555-0.26-6.166,0.699-7.074,0.896c-6.083,1.315-6.705,2.294-7.077,2.879c-0.866,1.363-0.197,4.678,0.683,5.829
	c0.024,0.032,0.057,0.055,0.083,0.085c-0.479,2.37,0.307,5.365,2.232,8.275c1.831,2.767,4.962,5.724,8.263,5.724
	c0.424,0,0.841-0.051,1.241-0.149c2.355-0.583,4.708-3.173,5.994-6.599C27.327,67.94,26.928,63.705,24.672,60.474z M20.49,59.092
	c0.122,0.229,0.227,0.601,0.206,0.78c-0.004,0.021-0.001,0.043-0.004,0.064c-1.455,0.28-3.322,0.691-4.947,1.062
	c-2.15,0.49-3.633,0.836-4.668,1.112c-0.081-0.272-0.155-0.644-0.196-0.974C12.882,60.327,18.726,59.132,20.49,59.092z
	 M22.023,70.687c-0.94,2.502-2.472,3.939-3.211,4.122c-1.077,0.265-3.353-1.096-5.207-3.898c-1.152-1.74-1.789-3.601-1.715-4.867
	c2.225-0.601,7.746-1.848,10.083-2.287C23.305,66.528,22.483,69.462,22.023,70.687z"/>
<path d="M20.526,39.813c-0.712,0-1.4-0.381-1.762-1.051c-0.949-1.76-0.827-3.958,0.313-5.602c0.63-0.907,1.874-1.132,2.784-0.503
	c0.907,0.63,1.133,1.876,0.503,2.784c-0.276,0.397-0.31,0.996-0.08,1.422c0.524,0.972,0.162,2.186-0.811,2.71
	C21.172,39.735,20.847,39.813,20.526,39.813z"/>
<path d="M44.176,56.391c-1.515-3.6-3.863-7.437-9.79-8.603c-1.084-0.213-2.136,0.493-2.349,1.576
	c-0.213,1.084,0.493,2.135,1.576,2.348c0.499,0.099,0.95,0.228,1.379,0.373c-3.612,4.188-6.781,4.535-6.925,4.549
	c-1.1,0.1-1.91,1.073-1.81,2.173c0.095,1.038,0.967,1.818,1.989,1.818c0.061,0,0.123-0.003,0.185-0.009
	c0.884-0.081,5.336-0.77,9.927-6.321c0.604,0.689,1.11,1.488,1.562,2.399c-2.637,3.096-5.527,10.37-3.254,16.379
	c0.303,0.8,1.063,1.293,1.871,1.293c0.235,0,0.474-0.042,0.707-0.131c1.033-0.391,1.554-1.545,1.163-2.578
	c-1.982-5.239,1.716-11.975,2.908-12.749C44.201,58.409,44.57,57.327,44.176,56.391z"/>
</svg>
