<?xml version="1.0" encoding="utf-8"?>
<!-- Generator: Adobe Illustrator 16.0.4, SVG Export Plug-In . SVG Version: 6.00 Build 0)  -->
<!DOCTYPE svg PUBLIC "-//W3C//DTD SVG 1.1//EN" "http://www.w3.org/Graphics/SVG/1.1/DTD/svg11.dtd">
<svg version="1.1" id="Layer_1" xmlns="http://www.w3.org/2000/svg" xmlns:xlink="http://www.w3.org/1999/xlink" x="0px" y="0px"
	 width="80.239px" height="177.576px" viewBox="19.393 -1 80.239 177.576" enable-background="new 19.393 -1 80.239 177.576"
	 xml:space="preserve">
<g>
	<path fill="#FFFFFF" d="M76.097,38.803l3.483-14.122L99.505,3.645c0.006-0.006,0.013-0.013,0.02-0.02
		c0.421-0.477-0.434-1.953-1.854-3.219c-1.42-1.266-2.953-1.694-3.43-1.212c-0.004,0.004-0.008,0.007-0.011,0.011L72.97,21.574
		l-4.371,16.877c-2.927-0.094-5.977-0.144-9.11-0.144c-22.145,0-40.096,2.476-40.096,5.53c0,3.055,17.952,5.531,40.096,5.531
		c22.145,0,40.097-2.476,40.097-5.531C99.586,41.601,89.953,39.674,76.097,38.803z M70.734,46.752c-2.631,0-4.765-0.581-4.765-1.297
		c0-0.303,0.386-0.582,1.024-0.803l-0.059,0.229c-0.023,0.038-0.036,0.076-0.036,0.115c0,0.464,1.717,0.839,3.836,0.839
		c2.118,0,3.836-0.375,3.836-0.839l0.07-0.284c0.54,0.21,0.859,0.466,0.859,0.743C75.5,46.171,73.366,46.752,70.734,46.752z"/>
	<path fill="#FFFFFF" d="M59.142,139.124c-10.404,0-18.443-1.562-22.309-2.495c-2.643-0.637-4.767-1.295-6.379-1.973l5.156,8.81
		l2.017,27.523c0,3.086,9.802,5.587,21.893,5.587s21.893-2.501,21.893-5.587l1.597-27.824l4.878-8.534
		c-1.619,0.687-3.761,1.354-6.438,1.998C77.585,137.562,69.545,139.124,59.142,139.124z"/>
	<path fill="#FFFFFF" d="M88.056,49.562c-7.635,1.067-17.771,1.654-28.536,1.654c-10.766,0-20.9-0.587-28.536-1.654
		c-3.783-0.528-6.775-1.151-8.895-1.851c-0.505-0.167-1.363-0.453-2.187-0.907l4.731,43.542c0.22-0.751,0.464-1.5,0.736-2.246
		c0.555-1.529,1.197-3.024,1.927-4.485c0.729-1.459,1.523-2.84,2.382-4.14c0.858-1.3,1.772-2.497,2.74-3.59
		c0.969-1.093,1.963-2.033,2.983-2.821c1.02-0.788,2.049-1.403,3.089-1.846c1.04-0.444,2.069-0.666,3.089-0.666
		c1.174,0,2.311,0.322,3.409,0.964c1.097,0.642,2.123,1.683,3.079,3.12c0.219,0.322,0.359,0.646,0.417,0.975
		c0.059,0.33,0.087,0.639,0.087,0.929c0,0.688-0.165,1.232-0.494,1.629c-0.329,0.397-0.72,0.596-1.171,0.596
		c-0.414,0-0.797-0.218-1.152-0.653c-0.355-0.436-0.752-1.06-1.191-1.871c-0.414-0.734-0.868-1.265-1.365-1.594
		c-0.497-0.329-1.036-0.493-1.617-0.493c-0.904,0-1.869,0.375-2.896,1.124c-1.026,0.749-2.043,1.739-3.05,2.971
		c-1.007,1.231-1.973,2.638-2.896,4.221c-0.922,1.582-1.74,3.203-2.45,4.862c-0.71,1.66-1.275,3.297-1.695,4.909
		c-0.42,1.614-0.629,3.064-0.629,4.348c0,0.429,0.029,0.869,0.087,1.319c0.059,0.451,0.167,0.859,0.33,1.228
		c0.161,0.367,0.38,0.669,0.658,0.905c0.278,0.238,0.629,0.356,1.056,0.356c0.478,0,1.02-0.16,1.627-0.482
		c0.606-0.32,1.236-0.741,1.887-1.262c0.652-0.521,1.308-1.109,1.967-1.766c0.659-0.657,1.272-1.324,1.839-1.997
		c0.568-0.673,1.071-1.317,1.511-1.938c0.439-0.618,0.768-1.157,0.988-1.615l1.801-5.392c0.219-0.581,0.506-0.994,0.862-1.238
		c0.355-0.245,0.72-0.368,1.094-0.368c0.18,0,0.361,0.031,0.542,0.092c0.182,0.062,0.342,0.157,0.485,0.287
		c0.142,0.13,0.255,0.298,0.338,0.505c0.084,0.206,0.126,0.447,0.126,0.722c0,0.734-0.064,1.422-0.193,2.065
		c-0.129,0.643-0.293,1.269-0.494,1.881c-0.2,0.61-0.423,1.228-0.668,1.847c-0.246,0.618-0.484,1.266-0.716,1.938
		c-0.052,0.078-0.146,0.319-0.281,0.724c-0.136,0.406-0.3,0.915-0.494,1.525c-0.194,0.611-0.404,1.296-0.629,2.053
		c-0.227,0.757-0.458,1.53-0.697,2.316c-0.239,0.789-0.468,1.561-0.688,2.317c-0.22,0.757-0.417,1.441-0.591,2.055
		c-0.174,0.61-0.319,1.123-0.437,1.535c-0.116,0.413-0.187,0.657-0.213,0.735c-0.064,0.244-0.168,0.517-0.309,0.813
		c-0.142,0.298-0.31,0.582-0.504,0.849c-0.193,0.269-0.407,0.49-0.639,0.665c-0.232,0.176-0.471,0.264-0.717,0.264
		c-0.413,0-0.713-0.138-0.9-0.412c-0.188-0.274-0.281-0.779-0.281-1.514v-0.32c0-0.108,0.006-0.223,0.019-0.345
		c0.013-0.244,0.11-0.705,0.291-1.378c0.181-0.673,0.397-1.432,0.649-2.28c0.252-0.85,0.523-1.729,0.813-2.64
		c0.29-0.909,0.552-1.724,0.784-2.442c-0.685,0.765-1.427,1.525-2.227,2.282c-0.801,0.757-1.621,1.438-2.46,2.043
		c-0.839,0.603-1.685,1.097-2.537,1.479c-0.852,0.381-1.672,0.572-2.459,0.572c-0.904,0-1.682-0.198-2.334-0.597
		c-0.118-0.071-0.229-0.154-0.339-0.234l2.632,27.603c0.685,1.718,13.587,5.938,30.598,5.938c17.018,0,29.926-4.224,30.599-5.939
		l3.781-32.816c-0.313,0.286-0.617,0.568-0.909,0.839c-1.084,1.01-2.108,1.878-3.07,2.604c-0.961,0.727-1.9,1.289-2.817,1.686
		c-0.917,0.398-1.898,0.597-2.944,0.597c-0.981,0-1.74-0.214-2.275-0.641c-0.536-0.429-0.804-1.018-0.804-1.766v-0.173
		c0-0.054,0.006-0.12,0.02-0.196c0.051-0.458,0.251-0.987,0.6-1.582c0.348-0.597,0.768-1.217,1.258-1.858
		c0.491-0.643,1.015-1.293,1.569-1.95c0.556-0.656,1.068-1.279,1.541-1.87c0.47-0.587,0.86-1.127,1.17-1.616
		c0.311-0.49,0.466-0.887,0.466-1.193c0-0.184-0.065-0.328-0.193-0.437c-0.13-0.105-0.344-0.16-0.64-0.16
		c-0.517,0-1.05,0.135-1.597,0.402c-0.55,0.267-1.093,0.627-1.628,1.078c-0.536,0.45-1.058,0.967-1.569,1.548
		c-0.51,0.582-0.987,1.185-1.433,1.812c-0.446,0.629-0.852,1.26-1.22,1.895c-0.369,0.635-0.682,1.22-0.94,1.754
		c-0.077,0.169-0.188,0.407-0.33,0.711c-0.142,0.307-0.297,0.651-0.465,1.033c-0.168,0.383-0.345,0.777-0.532,1.18
		c-0.188,0.406-0.358,0.789-0.514,1.147c-0.154,0.36-0.293,0.681-0.416,0.963c-0.124,0.284-0.21,0.479-0.262,0.587
		c-0.064,0.137-0.17,0.396-0.32,0.779c-0.148,0.382-0.319,0.829-0.512,1.342c-0.194,0.513-0.398,1.051-0.611,1.617
		c-0.212,0.565-0.414,1.102-0.6,1.606c-0.188,0.505-0.352,0.947-0.493,1.329c-0.143,0.383-0.233,0.644-0.272,0.781
		c-0.128,0.396-0.28,0.771-0.455,1.124c-0.174,0.352-0.375,0.66-0.6,0.929c-0.227,0.269-0.485,0.48-0.775,0.643
		c-0.291,0.16-0.617,0.24-0.978,0.24c-0.465,0-0.849-0.112-1.152-0.332c-0.303-0.223-0.456-0.646-0.456-1.273
		c0-0.307,0.039-0.619,0.116-0.939c0.078-0.322,0.175-0.639,0.292-0.953c0.116-0.314,0.235-0.619,0.358-0.917
		c0.122-0.299,0.235-0.585,0.338-0.861c0.697-1.527,1.408-3.062,2.13-4.6c0.723-1.536,1.417-3.058,2.082-4.563
		c0.139-0.314,0.266-0.623,0.4-0.936c-0.04,0.04-0.08,0.082-0.119,0.12c-0.84,0.812-1.675,1.526-2.508,2.146
		c-0.834,0.618-1.66,1.113-2.479,1.479c-0.82,0.366-1.618,0.551-2.393,0.551c-0.529,0-0.971-0.084-1.326-0.253
		c-0.355-0.168-0.639-0.398-0.852-0.688s-0.365-0.633-0.456-1.031c-0.031-0.136-0.05-0.278-0.069-0.421
		c-0.228,0.179-0.456,0.349-0.687,0.513c-0.8,0.565-1.587,1.02-2.362,1.364c-0.774,0.344-1.472,0.517-2.091,0.517
		c-0.62,0-1.123-0.206-1.512-0.619c-0.387-0.412-0.58-1.117-0.58-2.11c0-0.705,0.103-1.521,0.309-2.455
		c-0.335,0.597-0.755,1.201-1.258,1.812c-0.504,0.612-1.078,1.169-1.724,1.674c-0.647,0.505-1.369,0.915-2.169,1.228
		c-0.802,0.314-1.673,0.471-2.615,0.471c-0.427,0-0.836-0.055-1.23-0.16c-0.395-0.108-0.74-0.291-1.037-0.551
		c-0.297-0.261-0.536-0.609-0.716-1.044c-0.181-0.437-0.271-0.982-0.271-1.64c0-0.016,0.026-0.248,0.078-0.701
		c0.052-0.45,0.216-1.163,0.494-2.134c0.277-0.97,0.707-2.229,1.287-3.773c0.582-1.544,1.402-3.418,2.46-5.619
		c0.271-0.582,0.585-0.998,0.939-1.25c0.355-0.252,0.739-0.379,1.152-0.379c0.181,0,0.368,0.027,0.562,0.081
		c0.195,0.054,0.375,0.138,0.543,0.252c0.167,0.115,0.303,0.26,0.407,0.436c0.102,0.176,0.155,0.378,0.155,0.607
		c0,0.153-0.02,0.299-0.059,0.437c-0.064,0.26-0.204,0.6-0.416,1.021c-0.213,0.421-0.462,0.903-0.747,1.445
		c-0.283,0.543-0.583,1.128-0.899,1.755c-0.317,0.627-0.61,1.277-0.882,1.95c-0.271,0.673-0.503,1.357-0.697,2.053
		c-0.193,0.696-0.303,1.373-0.329,2.03c0,0.276,0.064,0.526,0.193,0.757s0.343,0.345,0.64,0.345c0.838,0,1.639-0.276,2.401-0.825
		c0.761-0.553,1.465-1.235,2.111-2.055c0.646-0.819,1.229-1.698,1.752-2.64c0.523-0.938,0.958-1.8,1.307-2.579
		c0.246-0.521,0.462-1.079,0.649-1.674c0.187-0.597,0.391-1.146,0.61-1.652c0.22-0.504,0.471-0.925,0.755-1.262
		c0.284-0.335,0.64-0.504,1.065-0.504c0.466,0,0.832,0.176,1.104,0.528c0.271,0.352,0.405,0.772,0.405,1.262
		c0,0.275-0.086,0.653-0.26,1.135c-0.175,0.482-0.395,1.033-0.659,1.651c-0.265,0.619-0.553,1.282-0.862,1.984
		c-0.309,0.703-0.598,1.418-0.861,2.146c-0.266,0.727-0.484,1.438-0.659,2.132c-0.174,0.697-0.261,1.344-0.261,1.938
		c0,0.553,0.284,0.827,0.852,0.827c0.4,0,0.897-0.138,1.491-0.412c0.595-0.276,1.217-0.663,1.869-1.16
		c0.162-0.124,0.327-0.254,0.49-0.39c0.181-0.749,0.395-1.444,0.644-2.075c0.452-1.193,0.909-2.379,1.375-3.556
		c0.464-1.178,0.89-2.255,1.278-3.234l5.868-14.796c0.232-0.596,0.546-1.017,0.938-1.262c0.394-0.245,0.792-0.367,1.192-0.367
		c0.399,0,0.764,0.13,1.093,0.39c0.33,0.26,0.495,0.681,0.495,1.262c0,0.274-0.055,0.565-0.165,0.872
		c-0.109,0.306-0.249,0.634-0.417,0.986c-0.323,0.72-0.707,1.598-1.153,2.638c-0.445,1.04-0.923,2.172-1.433,3.396
		c-0.511,1.223-1.033,2.497-1.569,3.819c-0.536,1.323-1.059,2.611-1.569,3.866c-0.51,1.254-0.987,2.443-1.433,3.566
		c-0.445,1.126-0.83,2.099-1.152,2.926c-0.142,0.351-0.281,0.761-0.417,1.228s-0.203,0.883-0.203,1.25
		c0,0.228,0.039,0.412,0.116,0.55c0.077,0.139,0.226,0.207,0.445,0.207c0.271,0,0.61-0.095,1.017-0.287
		c0.407-0.189,0.845-0.444,1.317-0.757c0.472-0.314,0.962-0.673,1.471-1.079c0.511-0.404,1.018-0.825,1.521-1.262
		c0.504-0.437,0.985-0.871,1.443-1.308c0.458-0.435,0.869-0.837,1.23-1.203c0.085-0.088,0.186-0.15,0.298-0.198
		c0.217-0.651,0.417-1.288,0.592-1.912c0.104-0.274,0.246-0.665,0.426-1.17s0.388-1.003,0.62-1.491
		c0.232-0.489,0.495-0.914,0.784-1.273c0.291-0.359,0.604-0.539,0.94-0.539c0.517,0,0.891,0.119,1.123,0.355
		c0.232,0.237,0.349,0.585,0.349,1.045c0,0.092-0.013,0.236-0.039,0.436c-0.026,0.198-0.058,0.408-0.096,0.631
		c-0.039,0.221-0.081,0.431-0.126,0.631c-0.046,0.198-0.087,0.343-0.126,0.435c0.477-0.519,0.995-1.035,1.549-1.548
		c0.556-0.513,1.13-0.975,1.724-1.388s1.2-0.749,1.821-1.01c0.618-0.259,1.239-0.39,1.858-0.39c0.426,0,0.849,0.062,1.269,0.184
		c0.419,0.122,0.795,0.302,1.123,0.539c0.329,0.237,0.598,0.536,0.804,0.896c0.206,0.358,0.31,0.774,0.31,1.249
		c0,0.627-0.157,1.296-0.475,2.009c-0.315,0.71-0.713,1.425-1.19,2.143c-0.479,0.721-0.995,1.419-1.549,2.101
		c-0.556,0.679-1.075,1.299-1.559,1.855c-0.485,0.562-0.893,1.033-1.222,1.424c-0.328,0.391-0.501,0.655-0.513,0.791
		c0,0.185,0.058,0.333,0.174,0.449c0.116,0.113,0.311,0.172,0.581,0.172c0.22,0,0.543-0.122,0.969-0.368
		c0.426-0.245,1.023-0.669,1.792-1.271c0.768-0.605,1.743-1.416,2.924-2.434c0.811-0.696,1.759-1.527,2.828-2.473l5.122-47.438
		c-0.825,0.456-1.684,0.741-2.189,0.909C94.831,48.412,91.839,49.035,88.056,49.562z"/>
</g>
</svg>
