<?xml version="1.0" encoding="utf-8"?>
<!-- Generator: Adobe Illustrator 16.0.4, SVG Export Plug-In . SVG Version: 6.00 Build 0)  -->
<!DOCTYPE svg PUBLIC "-//W3C//DTD SVG 1.1//EN" "http://www.w3.org/Graphics/SVG/1.1/DTD/svg11.dtd">
<svg version="1.1" id="Layer_1" xmlns="http://www.w3.org/2000/svg" xmlns:xlink="http://www.w3.org/1999/xlink" x="0px" y="0px"
	 width="165.908px" height="175.75px" viewBox="0.554 0.875 165.908 175.75" enable-background="new 0.554 0.875 165.908 175.75"
	 xml:space="preserve">
<path fill="#FFFFFF" d="M83.243,0.875l-82.689,29.1l13.067,108.335l69.71,38.314l70.069-38.833L166.462,29.46L83.243,0.875z
	 M146.041,132.609l-62.992,34.861L21.03,133.072L9.833,36.183L83.05,10.089l75.164,25.632L146.041,132.609z"/>
<path fill="#FFFFFF" d="M83.051,15.809l-0.001-0.005l0,0.001l0-0.001v0.002L31.925,129.539l19.067-0.354l10.251-25.64H83.05
	l0.048-0.022l23.964,0.022l11.223,25.997l18.244,0.338L83.051,15.809z M83.872,88.396l-0.823-0.028h-15.08l15.217-36.096
	l17.268,36.124H83.872z"/>
</svg>
