<?xml version="1.0" encoding="utf-8"?>
<!-- Generator: Adobe Illustrator 16.0.4, SVG Export Plug-In . SVG Version: 6.00 Build 0)  -->
<!DOCTYPE svg PUBLIC "-//W3C//DTD SVG 1.1//EN" "http://www.w3.org/Graphics/SVG/1.1/DTD/svg11.dtd">
<svg version="1.1" id="Layer_1" xmlns="http://www.w3.org/2000/svg" xmlns:xlink="http://www.w3.org/1999/xlink" x="0px" y="0px"
	 width="80.238px" height="177.576px" viewBox="0 0 80.238 177.576" enable-background="new 0 0 80.238 177.576"
	 xml:space="preserve">
<path fill="#EB4A4B" d="M56.703,39.802l3.483-14.122L80.112,4.645c0.006-0.006,0.013-0.013,0.02-0.02
	c0.422-0.477-0.434-1.953-1.854-3.219c-1.42-1.266-2.953-1.694-3.43-1.212c-0.006,0.004-0.01,0.007-0.013,0.011l-21.26,22.369
	l-4.371,16.877c-2.927-0.094-5.977-0.144-9.109-0.144C17.951,39.307,0,41.783,0,44.836c0,3.055,17.952,5.531,40.097,5.531
	s40.097-2.476,40.097-5.531C80.193,42.601,70.56,40.673,56.703,39.802z M51.34,47.751c-2.631,0-4.765-0.581-4.765-1.297
	c0-0.303,0.386-0.582,1.024-0.803l-0.061,0.229c-0.021,0.038-0.036,0.076-0.036,0.115c0,0.464,1.719,0.839,3.836,0.839
	c2.118,0,3.836-0.375,3.836-0.839l0.07-0.284c0.54,0.21,0.859,0.466,0.859,0.743C56.107,47.17,53.973,47.751,51.34,47.751z"/>
<path fill="#EB4A4B" d="M39.749,140.123c-10.403,0-18.441-1.562-22.309-2.495c-2.645-0.637-4.769-1.295-6.379-1.973l5.154,8.81
	l2.019,27.522c0,3.087,9.802,5.588,21.893,5.588c12.09,0,21.894-2.501,21.894-5.588l1.597-27.823l4.878-8.534
	c-1.619,0.688-3.761,1.354-6.438,1.998C58.192,138.562,50.152,140.123,39.749,140.123z"/>
<path fill="#EB4A4B" d="M50.578,116.312"/>
<path fill="#EB4A4B" d="M77.549,48.724c-2.11,0.688-5.104,1.311-8.887,1.838c-7.635,1.067-17.771,1.654-28.536,1.654
	s-20.898-0.587-28.536-1.654c-3.781-0.528-6.773-1.151-8.895-1.851c-0.505-0.167-1.363-0.453-2.188-0.907l8.644,84.539
	c0.685,1.719,13.587,5.938,30.598,5.938c17.019,0,29.925-4.226,30.6-5.939l9.391-84.527C78.913,48.271,78.055,48.556,77.549,48.724z
	 M61.72,109.944l-21.655,12.002L18.52,110.104l-4.039-33.48l25.556-8.994l25.719,8.835L61.72,109.944z"/>
<polygon fill="#EB4A4B" points="39.756,94.671 40.01,94.681 45.134,94.681 39.798,83.515 35.095,94.671 "/>
<path fill="#EB4A4B" d="M17.35,78.542l3.46,29.943l19.168,10.633l19.468-10.774L63.208,78.4l-23.229-7.922L17.35,78.542z
	 M50.646,107.396l-3.47-8.033l-7.406-0.008l-0.016,0.008h-6.738l-3.168,7.924l-5.894,0.109l15.8-35.149v-0.001l0.001,0.001
	L56.283,107.5L50.646,107.396z"/>
</svg>
