<?xml version="1.0" encoding="utf-8"?>
<!-- Generator: Adobe Illustrator 16.0.4, SVG Export Plug-In . SVG Version: 6.00 Build 0)  -->
<!DOCTYPE svg PUBLIC "-//W3C//DTD SVG 1.1//EN" "http://www.w3.org/Graphics/SVG/1.1/DTD/svg11.dtd">
<svg version="1.1" id="Layer_1" xmlns="http://www.w3.org/2000/svg" xmlns:xlink="http://www.w3.org/1999/xlink" x="0px" y="0px"
	 width="80.238px" height="177.576px" viewBox="0 0 80.238 177.576" enable-background="new 0 0 80.238 177.576"
	 xml:space="preserve">
<path fill="#FFFFFF" d="M56.703,39.802l3.483-14.122L80.112,4.645c0.006-0.006,0.013-0.013,0.02-0.02
	c0.421-0.477-0.434-1.953-1.854-3.219c-1.42-1.266-2.953-1.694-3.43-1.212c-0.005,0.004-0.009,0.007-0.012,0.011l-21.26,22.369
	l-4.371,16.877c-2.927-0.094-5.977-0.144-9.11-0.144C17.951,39.307,0,41.783,0,44.836c0,3.055,17.952,5.531,40.096,5.531
	c22.145,0,40.097-2.476,40.097-5.531C80.193,42.601,70.56,40.673,56.703,39.802z M51.34,47.751c-2.631,0-4.765-0.581-4.765-1.297
	c0-0.303,0.386-0.582,1.024-0.803l-0.06,0.229c-0.022,0.038-0.036,0.076-0.036,0.115c0,0.464,1.718,0.839,3.836,0.839
	s3.836-0.375,3.836-0.839l0.07-0.284c0.54,0.21,0.859,0.466,0.859,0.743C56.107,47.17,53.973,47.751,51.34,47.751z"/>
<path fill="#FFFFFF" d="M39.749,140.123c-10.404,0-18.442-1.562-22.309-2.495c-2.644-0.637-4.768-1.295-6.379-1.973l5.155,8.81
	l2.018,27.523c0,3.086,9.802,5.587,21.893,5.587c12.09,0,21.893-2.501,21.893-5.587l1.597-27.824l4.878-8.534
	c-1.619,0.687-3.761,1.354-6.438,1.998C58.192,138.561,50.152,140.123,39.749,140.123z"/>
<path fill="#FFFFFF" d="M50.578,116.311"/>
<path fill="#FFFFFF" d="M77.549,48.724c-2.111,0.688-5.104,1.311-8.887,1.838c-7.635,1.067-17.771,1.654-28.536,1.654
	c-10.766,0-20.899-0.587-28.536-1.654c-3.782-0.528-6.774-1.151-8.895-1.851c-0.505-0.167-1.363-0.453-2.188-0.907l8.643,84.539
	c0.685,1.718,13.587,5.938,30.598,5.938c17.018,0,29.925-4.225,30.599-5.939l9.391-84.527
	C78.913,48.271,78.055,48.556,77.549,48.724z M61.72,109.945l-21.655,12.001L18.52,110.105l-4.039-33.481l25.556-8.994l25.719,8.835
	L61.72,109.945z"/>
<polygon fill="#FFFFFF" points="39.756,94.671 40.01,94.68 45.134,94.68 39.798,83.515 35.095,94.671 "/>
<path fill="#FFFFFF" d="M17.35,78.542l3.46,29.944l19.168,10.632l19.468-10.774l3.762-29.944l-23.229-7.922L17.35,78.542z
	 M50.646,107.396l-3.469-8.034l-7.407-0.007l-0.015,0.007h-6.739l-3.168,7.924l-5.893,0.109l15.8-35.149v-0.001l0.001,0.001
	L56.283,107.5L50.646,107.396z"/>
</svg>
