<svg xmlns="http://www.w3.org/2000/svg" width="80.238" height="177.576" viewBox="0 0 80.238 177.576"><path fill="#EB4A4B" d="M56.703 39.802l3.483-14.122L80.112 4.645l.02-.02c.422-.477-.434-1.953-1.854-3.22-1.42-1.265-2.953-1.693-3.43-1.21-.006.003-.01.006-.013.01l-21.26 22.37-4.37 16.876c-2.928-.093-5.978-.143-9.11-.143C17.95 39.307 0 41.783 0 44.837c0 3.054 17.952 5.53 40.097 5.53s40.097-2.476 40.097-5.53c0-2.236-9.634-4.164-23.49-5.035zm-5.363 7.95c-2.63 0-4.765-.582-4.765-1.298 0-.303.386-.582 1.024-.803l-.062.23c-.02.038-.036.076-.036.115 0 .464 1.72.84 3.836.84 2.118 0 3.836-.376 3.836-.84l.07-.284c.54.21.86.467.86.744.003.716-2.13 1.297-4.764 1.297zM39.75 140.123c-10.404 0-18.442-1.562-22.31-2.495-2.645-.637-4.77-1.295-6.38-1.973l5.155 8.81 2.02 27.522c0 3.087 9.8 5.588 21.892 5.588 12.09 0 21.894-2.5 21.894-5.588l1.598-27.823 4.878-8.534c-1.62.688-3.76 1.354-6.438 1.998-3.866.934-11.906 2.495-22.31 2.495z"/><path fill="#EB4A4B" d="M77.55 48.724c-2.11.688-5.105 1.31-8.888 1.838-7.635 1.067-17.77 1.654-28.536 1.654s-20.898-.587-28.536-1.654c-3.78-.528-6.773-1.15-8.895-1.85-.505-.168-1.363-.454-2.188-.908l8.644 84.54c.686 1.718 13.588 5.937 30.6 5.937 17.018 0 29.924-4.225 30.6-5.938l9.39-84.527c-.827.456-1.685.74-2.19.91zm-15.83 61.22l-21.655 12.002-21.545-11.842-4.04-33.48 25.557-8.994 25.72 8.835-4.037 33.48z"/><path fill="#EB4A4B" d="M39.756 94.67l.254.01h5.124l-5.336-11.165-4.703 11.156"/><path fill="#EB4A4B" d="M17.35 78.542l3.46 29.943 19.168 10.633 19.468-10.774L63.208 78.4l-23.23-7.922-22.628 8.064zm33.296 28.854l-3.47-8.033-7.406-.008-.016.008h-6.738l-3.168 7.924-5.894.11 15.8-35.15 16.53 35.253-5.638-.104z"/></svg>