<svg xmlns="http://www.w3.org/2000/svg" width="165.908" height="175.75" viewBox="0.554 0.875 165.908 175.75"><path fill="#FFF" d="M83.243.875l-82.69 29.1L13.622 138.31l69.71 38.314 70.07-38.833 13.062-108.33L83.242.875zM146.04 132.61l-62.99 34.86-62.02-34.398-11.197-96.89L83.05 10.09l75.164 25.63-12.173 96.89z"/><path fill="#FFF" d="M83.05 15.81v-.006.002L31.925 129.54l19.067-.355 10.25-25.64H83.05l.048-.022 23.964.022 11.223 25.997 18.244.338L83.05 15.81zm.822 72.586l-.823-.028H67.97l15.216-36.096 17.268 36.124H83.872z"/></svg>