<svg xmlns="http://www.w3.org/2000/svg" width="80.238" height="177.576" viewBox="0 0 80.238 177.576"><path fill="#FFF" d="M56.703 39.802l3.483-14.122L80.112 4.645l.02-.02c.42-.477-.434-1.953-1.854-3.22-1.42-1.265-2.953-1.693-3.43-1.21-.005.003-.01.006-.012.01l-21.26 22.37-4.37 16.876c-2.928-.093-5.978-.143-9.11-.143C17.95 39.307 0 41.783 0 44.837c0 3.054 17.952 5.53 40.096 5.53 22.145 0 40.097-2.476 40.097-5.53 0-2.236-9.633-4.164-23.49-5.035zm-5.363 7.95c-2.63 0-4.765-.582-4.765-1.298 0-.303.386-.582 1.024-.803l-.06.23c-.023.038-.037.076-.037.115 0 .464 1.718.84 3.836.84s3.835-.376 3.835-.84l.07-.284c.54.21.86.467.86.744.002.716-2.132 1.297-4.765 1.297zM39.75 140.123c-10.405 0-18.443-1.562-22.31-2.495-2.644-.637-4.768-1.295-6.38-1.973l5.156 8.81 2.018 27.523c0 3.086 9.802 5.587 21.893 5.587 12.09 0 21.893-2.5 21.893-5.587l1.597-27.824 4.878-8.534c-1.62.687-3.76 1.354-6.438 1.998-3.865.933-11.905 2.495-22.308 2.495z"/><path fill="#FFF" d="M77.55 48.724c-2.112.688-5.105 1.31-8.888 1.838-7.635 1.067-17.77 1.654-28.536 1.654-10.766 0-20.9-.587-28.536-1.654-3.782-.528-6.774-1.15-8.895-1.85-.505-.168-1.363-.454-2.188-.908l8.643 84.54c.685 1.717 13.587 5.937 30.598 5.937 17.018 0 29.925-4.224 30.6-5.938l9.39-84.527c-.825.456-1.683.74-2.19.91zm-15.83 61.22l-21.655 12.002-21.545-11.84-4.04-33.482 25.557-8.994 25.72 8.835-4.037 33.48z"/><path fill="#FFF" d="M39.756 94.67l.254.01h5.124l-5.336-11.165-4.703 11.156"/><path fill="#FFF" d="M17.35 78.542l3.46 29.944 19.168 10.632 19.468-10.774L63.208 78.4l-23.23-7.922-22.628 8.064zm33.296 28.854l-3.47-8.034-7.406-.007-.015.007h-6.74l-3.167 7.924-5.893.11 15.8-35.15L56.284 107.5l-5.637-.104z"/></svg>